<?xml version="1.0" encoding="utf-8"?>
<!-- Generator: Adobe Illustrator 23.0.2, SVG Export Plug-In . SVG Version: 6.00 Build 0)  -->
<svg version="1.1" xmlns="http://www.w3.org/2000/svg" xmlns:xlink="http://www.w3.org/1999/xlink" x="0px" y="0px"
	 viewBox="0 0 233.73 185.02" style="enable-background:new 0 0 233.73 185.02;" xml:space="preserve">
<style type="text/css">
	.st0{fill:#FFFFFF;}
</style>
<g id="Capa_1">
</g>
<g id="Capa_2">
	<path class="st0" d="M220.87,24.62c0,0-104.01,0.5-125.68,0C76.56,23.35,79.76,1.8,59.51,0.2c-3.21-2.57-28.61,0-45.96,0
		C-1.56,6.62,0.05,14.98,0.05,14.98v148.18c1.93,15.43,21.21,21.86,21.21,21.86s171.96,0,191.57,0
		c17.36-5.14,20.89-21.86,20.89-21.86s0-113.46,0-126.96C227.3,23.34,220.87,24.62,220.87,24.62z M187.61,156.95l-27.75-14.59
		l-27.75,14.59l5.3-30.9l-22.45-21.88l31.02-4.51l13.87-28.11l13.87,28.11l31.02,4.51l-22.45,21.88L187.61,156.95z"/>
</g>
</svg>
