<svg xmlns="http://www.w3.org/2000/svg" xmlns:xlink="http://www.w3.org/1999/xlink" width="1366" zoomAndPan="magnify" viewBox="0 0 1024.5 576" height="768" preserveAspectRatio="xMidYMid meet" version="1.0"><defs><g/></defs><g fill="#545454" fill-opacity="1"><g transform="translate(33.505572, 337.027285)"><g><path d="M 64.050781 2.214844 C 93.148438 2.214844 115.765625 -15.5 121.300781 -42.382812 L 95.363281 -42.382812 C 90.777344 -29.730469 79.074219 -21.667969 64.523438 -21.667969 C 45.703125 -21.667969 32.421875 -35.425781 32.421875 -55.351562 C 32.421875 -75.277344 45.863281 -89.039062 64.683594 -89.039062 C 78.757812 -89.039062 90.304688 -81.445312 94.574219 -69.269531 L 120.507812 -69.269531 C 114.183594 -95.839844 92.042969 -112.917969 63.890625 -112.917969 C 30.363281 -112.917969 6.800781 -89.195312 6.800781 -55.351562 C 6.800781 -21.507812 30.363281 2.214844 64.050781 2.214844 Z M 64.050781 2.214844 "/></g></g></g><g fill="#545454" fill-opacity="1"><g transform="translate(152.576132, 337.027285)"><g><path d="M 52.820312 2.214844 C 80.339844 2.214844 99.316406 -15.65625 99.316406 -41.59375 C 99.316406 -67.371094 80.339844 -85.242188 52.820312 -85.242188 C 25.144531 -85.242188 6.167969 -67.371094 6.167969 -41.59375 C 6.167969 -15.65625 25.144531 2.214844 52.820312 2.214844 Z M 29.890625 -41.59375 C 29.890625 -55.195312 39.378906 -64.683594 52.820312 -64.683594 C 66.265625 -64.683594 75.59375 -55.195312 75.59375 -41.59375 C 75.59375 -27.992188 66.265625 -18.503906 52.820312 -18.503906 C 39.378906 -18.503906 29.890625 -27.992188 29.890625 -41.59375 Z M 29.890625 -41.59375 "/></g></g></g><g fill="#545454" fill-opacity="1"><g transform="translate(249.508474, 337.027285)"><g><path d="M 12.019531 0 L 36.058594 0 L 36.058594 -43.492188 C 36.058594 -56.617188 43.332031 -64.683594 54.402344 -64.683594 C 64.683594 -64.683594 70.851562 -57.40625 70.851562 -45.230469 L 70.851562 0 L 94.890625 0 L 94.890625 -47.761719 C 94.890625 -70.691406 81.761719 -85.242188 60.097656 -85.242188 C 49.027344 -85.242188 39.0625 -81.445312 32.421875 -73.695312 L 29.890625 -83.027344 L 12.019531 -83.027344 Z M 12.019531 0 "/></g></g></g><g fill="#545454" fill-opacity="1"><g transform="translate(346.282711, 337.027285)"><g><path d="M 12.019531 0 L 36.058594 0 L 36.058594 -43.492188 C 36.058594 -56.617188 43.332031 -64.683594 54.402344 -64.683594 C 64.683594 -64.683594 70.851562 -57.40625 70.851562 -45.230469 L 70.851562 0 L 94.890625 0 L 94.890625 -47.761719 C 94.890625 -70.691406 81.761719 -85.242188 60.097656 -85.242188 C 49.027344 -85.242188 39.0625 -81.445312 32.421875 -73.695312 L 29.890625 -83.027344 L 12.019531 -83.027344 Z M 12.019531 0 "/></g></g></g><g fill="#545454" fill-opacity="1"><g transform="translate(443.056932, 337.027285)"><g><path d="M 51.238281 2.214844 C 71.640625 2.214844 87.773438 -8.222656 95.046875 -25.777344 L 70.691406 -25.777344 C 66.738281 -20.242188 59.621094 -17.078125 51.714844 -17.078125 C 40.800781 -17.078125 32.261719 -23.246094 30.046875 -34.632812 L 96.628906 -34.632812 C 98.050781 -65 80.023438 -85.242188 51.554688 -85.242188 C 24.671875 -85.242188 6.167969 -67.371094 6.167969 -41.59375 C 6.167969 -15.65625 24.511719 2.214844 51.238281 2.214844 Z M 30.207031 -49.816406 C 32.894531 -59.9375 41.117188 -66.105469 51.714844 -66.105469 C 62.785156 -66.105469 70.691406 -59.9375 73.382812 -49.816406 Z M 30.207031 -49.816406 "/></g></g></g><g fill="#545454" fill-opacity="1"><g transform="translate(537.142914, 337.027285)"><g><path d="M 51.554688 2.214844 C 74.960938 2.214844 92.515625 -11.542969 96.945312 -33.371094 L 73.539062 -33.371094 C 70.21875 -24.355469 61.996094 -18.503906 51.871094 -18.503906 C 38.90625 -18.503906 29.890625 -27.992188 29.890625 -41.59375 C 29.890625 -55.195312 38.90625 -64.683594 51.871094 -64.683594 C 61.363281 -64.683594 69.109375 -59.621094 73.066406 -51.238281 L 96.15625 -51.238281 C 92.359375 -71.800781 74.644531 -85.242188 51.554688 -85.242188 C 24.988281 -85.242188 6.167969 -67.054688 6.167969 -41.59375 C 6.167969 -15.972656 24.828125 2.214844 51.554688 2.214844 Z M 51.554688 2.214844 "/></g></g></g><g fill="#545454" fill-opacity="1"><g transform="translate(631.387045, 337.027285)"><g><path d="M 52.03125 0 L 67.214844 0 L 67.214844 -20.875 L 57.25 -20.875 C 47.761719 -20.875 43.332031 -25.460938 43.332031 -35.109375 L 43.332031 -63.417969 L 66.105469 -63.417969 L 66.105469 -83.027344 L 43.332031 -83.027344 L 43.332031 -104.535156 L 24.671875 -104.535156 L 23.246094 -93.78125 C 21.984375 -85.242188 19.609375 -83.027344 10.597656 -83.027344 L 3.164062 -83.027344 L 3.164062 -63.417969 L 19.292969 -63.417969 L 19.292969 -31.472656 C 19.292969 -11.230469 30.996094 0 52.03125 0 Z M 52.03125 0 "/></g></g></g><g fill="#e69705" fill-opacity="1"><g transform="translate(719.734866, 345.361291)"><g><path d="M 6.371094 -85.816406 C -0.671875 -84.8125 -1.003906 -74.085938 -1.003906 -74.085938 C -1.003906 -74.085938 -6.371094 -15.753906 -6.703125 -6.035156 C -7.039062 0.335938 10.058594 0.671875 12.738281 -0.335938 C 15.421875 -1.339844 25.476562 -76.429688 25.476562 -81.796875 C 25.140625 -86.824219 13.746094 -86.824219 6.371094 -85.816406 Z M 22.796875 -100.902344 C 27.488281 -103.585938 32.851562 -119.339844 20.785156 -123.699219 C 7.039062 -128.726562 3.351562 -118.335938 3.015625 -112.972656 C 2.011719 -100.566406 16.089844 -97.214844 22.796875 -100.902344 Z M 22.796875 -100.902344 "/></g></g></g><g fill="#e69705" fill-opacity="1"><g transform="translate(767.001042, 345.361291)"><g><path d="M 81.125 -215.214844 C 52.296875 -226.277344 29.5 -199.460938 19.441406 -171.636719 C 16.089844 -161.578125 11.734375 -142.136719 7.710938 -119.003906 C -6.035156 -117.664062 -17.765625 -119.675781 -24.136719 -121.015625 C -26.816406 -121.6875 -29.5 -120.011719 -30.839844 -117.664062 L -34.191406 -110.289062 C -35.535156 -106.9375 -33.859375 -102.914062 -30.171875 -101.910156 C -17.765625 -98.554688 -6.371094 -97.214844 4.023438 -97.550781 C -1.339844 -62.6875 -5.699219 -25.140625 -6.371094 -4.023438 C -4.359375 1.339844 14.414062 -0.335938 14.414062 -0.335938 C 14.414062 -0.335938 17.097656 -25.140625 21.453125 -56.316406 C 33.859375 -55.3125 45.925781 -55.3125 57.324219 -59.671875 C 61.011719 -60.675781 56.988281 -83.472656 53.972656 -82.464844 C 43.242188 -78.109375 34.191406 -77.773438 24.472656 -78.441406 C 25.476562 -85.816406 26.816406 -93.191406 27.824219 -100.566406 C 61.011719 -108.949219 80.453125 -132.75 88.5 -146.492188 C 104.925781 -174.652344 106.9375 -205.15625 81.125 -215.214844 Z M 79.449219 -179.011719 C 68.722656 -147.835938 50.617188 -132.078125 31.847656 -124.703125 C 34.863281 -140.460938 37.878906 -153.867188 40.5625 -162.25 C 52.296875 -198.117188 70.398438 -204.488281 75.761719 -201.136719 C 82.464844 -197.449219 83.136719 -189.402344 79.449219 -179.011719 Z M 79.449219 -179.011719 "/></g></g></g><g fill="#e69705" fill-opacity="1"><g transform="translate(845.777991, 345.361291)"><g><path d="M 91.179688 10.058594 C 96.210938 -23.128906 101.910156 -52.628906 102.914062 -74.085938 C 104.253906 -86.488281 105.261719 -95.539062 105.929688 -98.890625 C 106.265625 -100.230469 105.597656 -101.238281 104.589844 -101.910156 C 94.867188 -104.925781 85.816406 -102.914062 82.464844 -101.910156 C 81.796875 -101.574219 81.125 -100.902344 80.789062 -100.230469 C 80.453125 -98.222656 38.550781 -21.453125 26.816406 -21.789062 C 20.449219 -22.125 14.414062 -30.503906 16.761719 -46.597656 C 18.101562 -57.660156 22.796875 -77.773438 24.136719 -82.128906 C 24.472656 -83.136719 23.800781 -84.476562 22.460938 -84.8125 C 13.074219 -88.5 4.023438 -86.824219 0.671875 -85.816406 C -0.335938 -85.816406 -0.671875 -85.148438 -1.003906 -84.140625 C -2.683594 -78.441406 -6.371094 -68.386719 -8.714844 -41.234375 C -10.726562 -21.453125 -1.339844 -9.722656 11.734375 -2.347656 C 23.464844 4.691406 37.546875 3.015625 56.988281 -18.773438 C 63.691406 -26.484375 73.75 -39.222656 75.089844 -43.578125 C 73.078125 -28.160156 70.0625 -4.359375 67.378906 13.074219 C 34.191406 21.453125 14.75 45.253906 6.703125 59.335938 C -9.722656 87.160156 -11.734375 118 14.414062 128.054688 C 42.910156 138.785156 65.703125 112.300781 75.761719 84.476562 C 79.449219 73.75 84.140625 52.628906 88.164062 28.496094 C 101.574219 26.484375 113.304688 28.496094 119.003906 30.171875 C 121.351562 30.503906 124.035156 29.5 125.375 27.488281 L 128.054688 23.128906 C 130.066406 19.777344 128.390625 15.421875 124.703125 14.414062 C 112.300781 11.0625 101.238281 10.058594 91.179688 10.058594 Z M 54.976562 74.753906 C 43.242188 110.625 25.140625 116.992188 19.441406 113.976562 C 13.074219 109.953125 12.402344 102.242188 16.089844 91.515625 C 26.484375 60.003906 44.921875 43.578125 63.691406 35.199219 C 60.675781 51.960938 57.660156 66.039062 54.976562 74.753906 Z M 54.976562 74.753906 "/></g></g></g><g fill="#3e7aa2" fill-opacity="1"><g transform="translate(702.994188, 246.067625)"><g><path d="M 41.117188 -1.996094 C 47.902344 -6.386719 53.089844 -24.351562 39.519531 -28.34375 C 22.753906 -33.53125 18.363281 -21.953125 17.964844 -15.566406 C 17.164062 -0.796875 33.53125 2.792969 41.117188 -1.996094 Z M 41.117188 -1.996094 "/></g></g></g></svg>