<svg xmlns="http://www.w3.org/2000/svg" xmlns:xlink="http://www.w3.org/1999/xlink" width="1366" zoomAndPan="magnify" viewBox="0 0 1024.5 576" height="768" preserveAspectRatio="xMidYMid meet" version="1.0"><defs><g/></defs><g fill="#545454" fill-opacity="1"><g transform="translate(80.826936, 339.250718)"><g><path d="M 60.019531 2.074219 C 87.289062 2.074219 108.480469 -14.523438 113.667969 -39.714844 L 89.363281 -39.714844 C 85.066406 -27.859375 74.097656 -20.304688 60.464844 -20.304688 C 42.828125 -20.304688 30.378906 -33.195312 30.378906 -51.867188 C 30.378906 -70.542969 42.976562 -83.433594 60.613281 -83.433594 C 73.800781 -83.433594 84.621094 -76.320312 88.621094 -64.910156 L 112.925781 -64.910156 C 106.996094 -89.808594 86.25 -105.8125 59.871094 -105.8125 C 28.453125 -105.8125 6.371094 -83.582031 6.371094 -51.867188 C 6.371094 -20.15625 28.453125 2.074219 60.019531 2.074219 Z M 60.019531 2.074219 "/></g></g></g><g fill="#545454" fill-opacity="1"><g transform="translate(192.404096, 339.250718)"><g><path d="M 49.496094 2.074219 C 75.285156 2.074219 93.066406 -14.671875 93.066406 -38.976562 C 93.066406 -63.132812 75.285156 -79.878906 49.496094 -79.878906 C 23.5625 -79.878906 5.78125 -63.132812 5.78125 -38.976562 C 5.78125 -14.671875 23.5625 2.074219 49.496094 2.074219 Z M 28.007812 -38.976562 C 28.007812 -51.71875 36.902344 -60.613281 49.496094 -60.613281 C 62.09375 -60.613281 70.835938 -51.71875 70.835938 -38.976562 C 70.835938 -26.230469 62.09375 -17.339844 49.496094 -17.339844 C 36.902344 -17.339844 28.007812 -26.230469 28.007812 -38.976562 Z M 28.007812 -38.976562 "/></g></g></g><g fill="#545454" fill-opacity="1"><g transform="translate(283.23625, 339.250718)"><g><path d="M 11.261719 0 L 33.789062 0 L 33.789062 -40.753906 C 33.789062 -53.054688 40.605469 -60.613281 50.980469 -60.613281 C 60.613281 -60.613281 66.390625 -53.796875 66.390625 -42.382812 L 66.390625 0 L 88.917969 0 L 88.917969 -44.753906 C 88.917969 -66.242188 76.617188 -79.878906 56.316406 -79.878906 C 45.941406 -79.878906 36.605469 -76.320312 30.378906 -69.058594 L 28.007812 -77.804688 L 11.261719 -77.804688 Z M 11.261719 0 "/></g></g></g><g fill="#545454" fill-opacity="1"><g transform="translate(373.920249, 339.250718)"><g><path d="M 11.261719 0 L 33.789062 0 L 33.789062 -40.753906 C 33.789062 -53.054688 40.605469 -60.613281 50.980469 -60.613281 C 60.613281 -60.613281 66.390625 -53.796875 66.390625 -42.382812 L 66.390625 0 L 88.917969 0 L 88.917969 -44.753906 C 88.917969 -66.242188 76.617188 -79.878906 56.316406 -79.878906 C 45.941406 -79.878906 36.605469 -76.320312 30.378906 -69.058594 L 28.007812 -77.804688 L 11.261719 -77.804688 Z M 11.261719 0 "/></g></g></g><g fill="#545454" fill-opacity="1"><g transform="translate(464.604233, 339.250718)"><g><path d="M 48.015625 2.074219 C 67.132812 2.074219 82.25 -7.707031 89.066406 -24.15625 L 66.242188 -24.15625 C 62.539062 -18.96875 55.871094 -16.003906 48.460938 -16.003906 C 38.234375 -16.003906 30.230469 -21.785156 28.15625 -32.453125 L 90.546875 -32.453125 C 91.882812 -60.910156 74.988281 -79.878906 48.3125 -79.878906 C 23.117188 -79.878906 5.78125 -63.132812 5.78125 -38.976562 C 5.78125 -14.671875 22.96875 2.074219 48.015625 2.074219 Z M 28.304688 -46.683594 C 30.824219 -56.167969 38.53125 -61.945312 48.460938 -61.945312 C 58.832031 -61.945312 66.242188 -56.167969 68.761719 -46.683594 Z M 28.304688 -46.683594 "/></g></g></g><g fill="#545454" fill-opacity="1"><g transform="translate(552.769155, 339.250718)"><g><path d="M 48.3125 2.074219 C 70.246094 2.074219 86.695312 -10.816406 90.84375 -31.269531 L 68.910156 -31.269531 C 65.800781 -22.820312 58.09375 -17.339844 48.609375 -17.339844 C 36.457031 -17.339844 28.007812 -26.230469 28.007812 -38.976562 C 28.007812 -51.71875 36.457031 -60.613281 48.609375 -60.613281 C 57.5 -60.613281 64.761719 -55.871094 68.464844 -48.015625 L 90.101562 -48.015625 C 86.546875 -67.28125 69.949219 -79.878906 48.3125 -79.878906 C 23.414062 -79.878906 5.78125 -62.835938 5.78125 -38.976562 C 5.78125 -14.96875 23.265625 2.074219 48.3125 2.074219 Z M 48.3125 2.074219 "/></g></g></g><g fill="#545454" fill-opacity="1"><g transform="translate(641.082274, 339.250718)"><g><path d="M 48.757812 0 L 62.984375 0 L 62.984375 -19.5625 L 53.648438 -19.5625 C 44.753906 -19.5625 40.605469 -23.859375 40.605469 -32.898438 L 40.605469 -59.425781 L 61.945312 -59.425781 L 61.945312 -77.804688 L 40.605469 -77.804688 L 40.605469 -97.957031 L 23.117188 -97.957031 L 21.785156 -87.878906 C 20.597656 -79.878906 18.375 -77.804688 9.929688 -77.804688 L 2.964844 -77.804688 L 2.964844 -59.425781 L 18.078125 -59.425781 L 18.078125 -29.492188 C 18.078125 -10.523438 29.046875 0 48.757812 0 Z M 48.757812 0 "/></g></g></g><g fill="#e69705" fill-opacity="1"><g transform="translate(723.870222, 347.060222)"><g><path d="M 5.96875 -80.417969 C -0.628906 -79.472656 -0.941406 -69.421875 -0.941406 -69.421875 C -0.941406 -69.421875 -5.96875 -14.765625 -6.28125 -5.65625 C -6.597656 0.3125 9.425781 0.628906 11.9375 -0.3125 C 14.449219 -1.257812 23.875 -71.621094 23.875 -76.648438 C 23.558594 -81.359375 12.878906 -81.359375 5.96875 -80.417969 Z M 21.359375 -94.554688 C 25.757812 -97.066406 30.785156 -111.828125 19.476562 -115.914062 C 6.597656 -120.625 3.140625 -110.886719 2.828125 -105.863281 C 1.886719 -94.238281 15.078125 -91.097656 21.359375 -94.554688 Z M 21.359375 -94.554688 "/></g></g></g><g fill="#e69705" fill-opacity="1"><g transform="translate(768.161823, 347.060222)"><g><path d="M 76.019531 -201.671875 C 49.003906 -212.035156 27.644531 -186.90625 18.21875 -160.832031 C 15.078125 -151.410156 10.996094 -133.191406 7.226562 -111.515625 C -5.65625 -110.257812 -16.648438 -112.144531 -22.617188 -113.402344 C -25.128906 -114.027344 -27.644531 -112.457031 -28.898438 -110.257812 L -32.042969 -103.347656 C -33.296875 -100.207031 -31.726562 -96.4375 -28.273438 -95.496094 C -16.648438 -92.355469 -5.96875 -91.097656 3.769531 -91.410156 C -1.257812 -58.742188 -5.339844 -23.558594 -5.96875 -3.769531 C -4.082031 1.257812 13.507812 -0.3125 13.507812 -0.3125 C 13.507812 -0.3125 16.019531 -23.558594 20.105469 -52.773438 C 31.726562 -51.832031 43.035156 -51.832031 53.714844 -55.914062 C 57.171875 -56.855469 53.402344 -78.21875 50.574219 -77.277344 C 40.523438 -73.191406 32.042969 -72.878906 22.929688 -73.507812 C 23.875 -80.417969 25.128906 -87.328125 26.074219 -94.238281 C 57.171875 -102.09375 75.390625 -124.394531 82.929688 -137.273438 C 98.324219 -163.660156 100.207031 -192.246094 76.019531 -201.671875 Z M 74.449219 -167.746094 C 64.394531 -138.53125 47.433594 -123.765625 29.84375 -116.855469 C 32.667969 -131.621094 35.496094 -144.183594 38.007812 -152.039062 C 49.003906 -185.648438 65.96875 -191.617188 70.992188 -188.476562 C 77.277344 -185.023438 77.902344 -177.484375 74.449219 -167.746094 Z M 74.449219 -167.746094 "/></g></g></g><g fill="#e69705" fill-opacity="1"><g transform="translate(841.981146, 347.060222)"><g><path d="M 85.441406 9.425781 C 90.15625 -21.675781 95.496094 -49.316406 96.4375 -69.421875 C 97.695312 -81.046875 98.636719 -89.527344 99.265625 -92.667969 C 99.578125 -93.925781 98.949219 -94.867188 98.007812 -95.496094 C 88.898438 -98.324219 80.417969 -96.4375 77.277344 -95.496094 C 76.648438 -95.179688 76.019531 -94.554688 75.703125 -93.925781 C 75.390625 -92.039062 36.125 -20.105469 25.128906 -20.417969 C 19.160156 -20.734375 13.507812 -28.585938 15.707031 -43.664062 C 16.964844 -54.03125 21.359375 -72.878906 22.617188 -76.960938 C 22.929688 -77.902344 22.304688 -79.160156 21.046875 -79.472656 C 12.25 -82.929688 3.769531 -81.359375 0.628906 -80.417969 C -0.3125 -80.417969 -0.628906 -79.789062 -0.941406 -78.847656 C -2.511719 -73.507812 -5.96875 -64.082031 -8.167969 -38.636719 C -10.050781 -20.105469 -1.257812 -9.109375 10.996094 -2.199219 C 21.988281 4.398438 35.183594 2.828125 53.402344 -17.589844 C 59.683594 -24.816406 69.109375 -36.753906 70.363281 -40.835938 C 68.480469 -26.386719 65.652344 -4.082031 63.140625 12.25 C 32.042969 20.105469 13.820312 42.40625 6.28125 55.601562 C -9.109375 81.671875 -10.996094 110.574219 13.507812 119.996094 C 40.207031 130.050781 61.570312 105.234375 70.992188 79.160156 C 74.449219 69.109375 78.847656 49.316406 82.617188 26.699219 C 95.179688 24.816406 106.175781 26.699219 111.515625 28.273438 C 113.714844 28.585938 116.226562 27.644531 117.484375 25.757812 L 119.996094 21.675781 C 121.882812 18.535156 120.3125 14.449219 116.855469 13.507812 C 105.234375 10.367188 94.867188 9.425781 85.441406 9.425781 Z M 51.515625 70.050781 C 40.523438 103.664062 23.558594 109.632812 18.21875 106.804688 C 12.25 103.035156 11.621094 95.808594 15.078125 85.757812 C 24.816406 56.230469 42.09375 40.835938 59.683594 32.984375 C 56.855469 48.691406 54.03125 61.882812 51.515625 70.050781 Z M 51.515625 70.050781 "/></g></g></g><g fill="#3e7aa2" fill-opacity="1"><g transform="translate(708.183123, 254.015344)"><g><path d="M 38.527344 -1.871094 C 44.886719 -5.984375 49.75 -22.816406 37.03125 -26.558594 C 21.320312 -31.421875 17.207031 -20.574219 16.832031 -14.589844 C 16.085938 -0.75 31.421875 2.617188 38.527344 -1.871094 Z M 38.527344 -1.871094 "/></g></g></g><g fill="#545454" fill-opacity="1"><g transform="translate(80.826936, 339.250718)"><g><path d="M 60.019531 2.074219 C 87.289062 2.074219 108.480469 -14.523438 113.667969 -39.714844 L 89.363281 -39.714844 C 85.066406 -27.859375 74.097656 -20.304688 60.464844 -20.304688 C 42.828125 -20.304688 30.378906 -33.195312 30.378906 -51.867188 C 30.378906 -70.542969 42.976562 -83.433594 60.613281 -83.433594 C 73.800781 -83.433594 84.621094 -76.320312 88.621094 -64.910156 L 112.925781 -64.910156 C 106.996094 -89.808594 86.25 -105.8125 59.871094 -105.8125 C 28.453125 -105.8125 6.371094 -83.582031 6.371094 -51.867188 C 6.371094 -20.15625 28.453125 2.074219 60.019531 2.074219 Z M 60.019531 2.074219 "/></g></g></g><g fill="#545454" fill-opacity="1"><g transform="translate(192.404096, 339.250718)"><g><path d="M 49.496094 2.074219 C 75.285156 2.074219 93.066406 -14.671875 93.066406 -38.976562 C 93.066406 -63.132812 75.285156 -79.878906 49.496094 -79.878906 C 23.5625 -79.878906 5.78125 -63.132812 5.78125 -38.976562 C 5.78125 -14.671875 23.5625 2.074219 49.496094 2.074219 Z M 28.007812 -38.976562 C 28.007812 -51.71875 36.902344 -60.613281 49.496094 -60.613281 C 62.09375 -60.613281 70.835938 -51.71875 70.835938 -38.976562 C 70.835938 -26.230469 62.09375 -17.339844 49.496094 -17.339844 C 36.902344 -17.339844 28.007812 -26.230469 28.007812 -38.976562 Z M 28.007812 -38.976562 "/></g></g></g><g fill="#545454" fill-opacity="1"><g transform="translate(283.23625, 339.250718)"><g><path d="M 11.261719 0 L 33.789062 0 L 33.789062 -40.753906 C 33.789062 -53.054688 40.605469 -60.613281 50.980469 -60.613281 C 60.613281 -60.613281 66.390625 -53.796875 66.390625 -42.382812 L 66.390625 0 L 88.917969 0 L 88.917969 -44.753906 C 88.917969 -66.242188 76.617188 -79.878906 56.316406 -79.878906 C 45.941406 -79.878906 36.605469 -76.320312 30.378906 -69.058594 L 28.007812 -77.804688 L 11.261719 -77.804688 Z M 11.261719 0 "/></g></g></g><g fill="#545454" fill-opacity="1"><g transform="translate(373.920249, 339.250718)"><g><path d="M 11.261719 0 L 33.789062 0 L 33.789062 -40.753906 C 33.789062 -53.054688 40.605469 -60.613281 50.980469 -60.613281 C 60.613281 -60.613281 66.390625 -53.796875 66.390625 -42.382812 L 66.390625 0 L 88.917969 0 L 88.917969 -44.753906 C 88.917969 -66.242188 76.617188 -79.878906 56.316406 -79.878906 C 45.941406 -79.878906 36.605469 -76.320312 30.378906 -69.058594 L 28.007812 -77.804688 L 11.261719 -77.804688 Z M 11.261719 0 "/></g></g></g><g fill="#545454" fill-opacity="1"><g transform="translate(464.604233, 339.250718)"><g><path d="M 48.015625 2.074219 C 67.132812 2.074219 82.25 -7.707031 89.066406 -24.15625 L 66.242188 -24.15625 C 62.539062 -18.96875 55.871094 -16.003906 48.460938 -16.003906 C 38.234375 -16.003906 30.230469 -21.785156 28.15625 -32.453125 L 90.546875 -32.453125 C 91.882812 -60.910156 74.988281 -79.878906 48.3125 -79.878906 C 23.117188 -79.878906 5.78125 -63.132812 5.78125 -38.976562 C 5.78125 -14.671875 22.96875 2.074219 48.015625 2.074219 Z M 28.304688 -46.683594 C 30.824219 -56.167969 38.53125 -61.945312 48.460938 -61.945312 C 58.832031 -61.945312 66.242188 -56.167969 68.761719 -46.683594 Z M 28.304688 -46.683594 "/></g></g></g><g fill="#545454" fill-opacity="1"><g transform="translate(552.769155, 339.250718)"><g><path d="M 48.3125 2.074219 C 70.246094 2.074219 86.695312 -10.816406 90.84375 -31.269531 L 68.910156 -31.269531 C 65.800781 -22.820312 58.09375 -17.339844 48.609375 -17.339844 C 36.457031 -17.339844 28.007812 -26.230469 28.007812 -38.976562 C 28.007812 -51.71875 36.457031 -60.613281 48.609375 -60.613281 C 57.5 -60.613281 64.761719 -55.871094 68.464844 -48.015625 L 90.101562 -48.015625 C 86.546875 -67.28125 69.949219 -79.878906 48.3125 -79.878906 C 23.414062 -79.878906 5.78125 -62.835938 5.78125 -38.976562 C 5.78125 -14.96875 23.265625 2.074219 48.3125 2.074219 Z M 48.3125 2.074219 "/></g></g></g><g fill="#545454" fill-opacity="1"><g transform="translate(641.082274, 339.250718)"><g><path d="M 48.757812 0 L 62.984375 0 L 62.984375 -19.5625 L 53.648438 -19.5625 C 44.753906 -19.5625 40.605469 -23.859375 40.605469 -32.898438 L 40.605469 -59.425781 L 61.945312 -59.425781 L 61.945312 -77.804688 L 40.605469 -77.804688 L 40.605469 -97.957031 L 23.117188 -97.957031 L 21.785156 -87.878906 C 20.597656 -79.878906 18.375 -77.804688 9.929688 -77.804688 L 2.964844 -77.804688 L 2.964844 -59.425781 L 18.078125 -59.425781 L 18.078125 -29.492188 C 18.078125 -10.523438 29.046875 0 48.757812 0 Z M 48.757812 0 "/></g></g></g></svg>