<?xml version="1.0" encoding="utf-8"?>
<!-- Generator: Adobe Illustrator 23.0.2, SVG Export Plug-In . SVG Version: 6.00 Build 0)  -->
<svg version="1.1" id="Capa_1" xmlns="http://www.w3.org/2000/svg" xmlns:xlink="http://www.w3.org/1999/xlink" x="0px" y="0px"
	 viewBox="0 0 595.28 841.89" style="enable-background:new 0 0 595.28 841.89;" xml:space="preserve">
<style type="text/css">
	.st0{fill:none;}
	.st1{fill:#020203;}
	.st2{font-family:'SegoePrint';}
	.st3{font-size:90px;}
	.st4{font-family:'PerpetuaTitlingMT-Light';}
	.st5{font-size:100px;}
	.st6{fill:#F39208;}
	.st7{font-family:'Pristina-Regular';}
</style>
<g>
	<rect x="13.04" y="58.03" class="st0" width="462.57" height="152.66"/>
	<text transform="matrix(1 0 0 1 13.0387 132.8267)" class="st1 st2 st3">     nnect</text>
	<rect x="49.65" y="75.57" class="st0" width="123.97" height="119.18"/>
	<text transform="matrix(1 0 0 1 54.6498 143.989)" class="st1 st4 st5">C</text>
	<rect x="451.99" y="51.03" class="st0" width="205.48" height="167.12"/>
	<text transform="matrix(1 0 0 1 451.9883 132.431)" class="st6 st7 st5">ify</text>
	<g id="Capa_3_2_">
		<path class="st1" d="M162.2,79.95c-17.13,0-31.02,13.89-31.02,31.02s13.89,31.02,31.02,31.02s31.02-13.89,31.02-31.02
			C193.22,93.83,179.33,79.95,162.2,79.95z M165.64,135.48c-14.06,0-25.46-11.4-25.46-25.46s11.4-25.46,25.46-25.46
			s25.46,11.4,25.46,25.46C191.09,124.08,179.7,135.48,165.64,135.48z"/>
		<g>
			<path class="st6" d="M145.84,107.62l6.91-4.98l10.93,12.21c0,0,14.63-26.2,39.7-34.71c0,2.25,0,2.25,0,2.25
				s-22.66,8.04-39.05,45.8"/>
		</g>
	</g>
</g>
</svg>
