<svg xmlns="http://www.w3.org/2000/svg" xmlns:xlink="http://www.w3.org/1999/xlink" width="1366" zoomAndPan="magnify" viewBox="0 0 1024.5 576" height="768" preserveAspectRatio="xMidYMid meet" version="1.0"><defs><g/></defs><g fill="#545454" fill-opacity="1"><g transform="translate(10.036496, 350.305519)"><g><path d="M 67.730469 2.339844 C 98.503906 2.339844 122.417969 -16.390625 128.269531 -44.820312 L 100.84375 -44.820312 C 95.996094 -31.441406 83.617188 -22.910156 68.234375 -22.910156 C 48.332031 -22.910156 34.285156 -37.460938 34.285156 -58.53125 C 34.285156 -79.605469 48.5 -94.15625 68.398438 -94.15625 C 83.285156 -94.15625 95.492188 -86.128906 100.007812 -73.25 L 127.433594 -73.25 C 120.746094 -101.347656 97.332031 -119.40625 67.5625 -119.40625 C 32.109375 -119.40625 7.191406 -94.320312 7.191406 -58.53125 C 7.191406 -22.746094 32.109375 2.339844 67.730469 2.339844 Z M 67.730469 2.339844 "/></g></g></g><g fill="#545454" fill-opacity="1"><g transform="translate(135.949925, 350.305519)"><g><path d="M 55.855469 2.339844 C 84.957031 2.339844 105.023438 -16.554688 105.023438 -43.984375 C 105.023438 -71.242188 84.957031 -90.140625 55.855469 -90.140625 C 26.589844 -90.140625 6.523438 -71.242188 6.523438 -43.984375 C 6.523438 -16.554688 26.589844 2.339844 55.855469 2.339844 Z M 31.609375 -43.984375 C 31.609375 -58.367188 41.640625 -68.398438 55.855469 -68.398438 C 70.074219 -68.398438 79.9375 -58.367188 79.9375 -43.984375 C 79.9375 -29.601562 70.074219 -19.566406 55.855469 -19.566406 C 41.640625 -19.566406 31.609375 -29.601562 31.609375 -43.984375 Z M 31.609375 -43.984375 "/></g></g></g><g fill="#545454" fill-opacity="1"><g transform="translate(238.452875, 350.305519)"><g><path d="M 12.710938 0 L 38.128906 0 L 38.128906 -45.992188 C 38.128906 -59.871094 45.824219 -68.398438 57.53125 -68.398438 C 68.398438 -68.398438 74.921875 -60.707031 74.921875 -47.828125 L 74.921875 0 L 100.34375 0 L 100.34375 -50.503906 C 100.34375 -74.753906 86.460938 -90.140625 63.550781 -90.140625 C 51.84375 -90.140625 41.308594 -86.128906 34.285156 -77.933594 L 31.609375 -87.800781 L 12.710938 -87.800781 Z M 12.710938 0 "/></g></g></g><g fill="#545454" fill-opacity="1"><g transform="translate(340.788634, 350.305519)"><g><path d="M 12.710938 0 L 38.128906 0 L 38.128906 -45.992188 C 38.128906 -59.871094 45.824219 -68.398438 57.53125 -68.398438 C 68.398438 -68.398438 74.921875 -60.707031 74.921875 -47.828125 L 74.921875 0 L 100.34375 0 L 100.34375 -50.503906 C 100.34375 -74.753906 86.460938 -90.140625 63.550781 -90.140625 C 51.84375 -90.140625 41.308594 -86.128906 34.285156 -77.933594 L 31.609375 -87.800781 L 12.710938 -87.800781 Z M 12.710938 0 "/></g></g></g><g fill="#545454" fill-opacity="1"><g transform="translate(443.124375, 350.305519)"><g><path d="M 54.183594 2.339844 C 75.757812 2.339844 92.816406 -8.695312 100.507812 -27.257812 L 74.753906 -27.257812 C 70.574219 -21.40625 63.046875 -18.0625 54.6875 -18.0625 C 43.148438 -18.0625 34.117188 -24.582031 31.773438 -36.625 L 102.183594 -36.625 C 103.6875 -68.734375 84.621094 -90.140625 54.519531 -90.140625 C 26.089844 -90.140625 6.523438 -71.242188 6.523438 -43.984375 C 6.523438 -16.554688 25.921875 2.339844 54.183594 2.339844 Z M 31.941406 -52.679688 C 34.785156 -63.382812 43.480469 -69.90625 54.6875 -69.90625 C 66.394531 -69.90625 74.753906 -63.382812 77.597656 -52.679688 Z M 31.941406 -52.679688 "/></g></g></g><g fill="#545454" fill-opacity="1"><g transform="translate(542.617387, 350.305519)"><g><path d="M 54.519531 2.339844 C 79.269531 2.339844 97.832031 -12.207031 102.515625 -35.285156 L 77.765625 -35.285156 C 74.253906 -25.753906 65.558594 -19.566406 54.855469 -19.566406 C 41.140625 -19.566406 31.609375 -29.601562 31.609375 -43.984375 C 31.609375 -58.367188 41.140625 -68.398438 54.855469 -68.398438 C 64.886719 -68.398438 73.082031 -63.046875 77.261719 -54.183594 L 101.679688 -54.183594 C 97.667969 -75.925781 78.9375 -90.140625 54.519531 -90.140625 C 26.421875 -90.140625 6.523438 -70.910156 6.523438 -43.984375 C 6.523438 -16.890625 26.257812 2.339844 54.519531 2.339844 Z M 54.519531 2.339844 "/></g></g></g><g fill="#545454" fill-opacity="1"><g transform="translate(642.277637, 350.305519)"><g><path d="M 55.019531 0 L 71.074219 0 L 71.074219 -22.074219 L 60.539062 -22.074219 C 50.503906 -22.074219 45.824219 -26.925781 45.824219 -37.125 L 45.824219 -67.0625 L 69.90625 -67.0625 L 69.90625 -87.800781 L 45.824219 -87.800781 L 45.824219 -110.542969 L 26.089844 -110.542969 L 24.582031 -99.171875 C 23.246094 -90.140625 20.738281 -87.800781 11.203125 -87.800781 L 3.34375 -87.800781 L 3.34375 -67.0625 L 20.402344 -67.0625 L 20.402344 -33.28125 C 20.402344 -11.875 32.777344 0 55.019531 0 Z M 55.019531 0 "/></g></g></g><g fill="#3b7ba4" fill-opacity="1"><g transform="translate(735.686291, 352.140434)"><g><path d="M 6.734375 -90.753906 C -0.710938 -89.691406 -1.0625 -78.347656 -1.0625 -78.347656 C -1.0625 -78.347656 -6.734375 -16.660156 -7.089844 -6.382812 C -7.445312 0.355469 10.636719 0.710938 13.472656 -0.355469 C 16.308594 -1.417969 26.941406 -80.828125 26.941406 -86.5 C 26.589844 -91.820312 14.535156 -91.820312 6.734375 -90.753906 Z M 24.105469 -106.707031 C 29.070312 -109.542969 34.742188 -126.207031 21.980469 -130.816406 C 7.445312 -136.132812 3.546875 -125.144531 3.191406 -119.46875 C 2.128906 -106.351562 17.015625 -102.808594 24.105469 -106.707031 Z M 24.105469 -106.707031 "/></g></g></g><g fill="#3b7ba4" fill-opacity="1"><g transform="translate(785.672241, 352.140434)"><g><path d="M 85.792969 -227.597656 C 55.304688 -239.296875 31.195312 -210.933594 20.5625 -181.511719 C 17.015625 -170.875 12.40625 -150.3125 8.152344 -125.851562 C -6.382812 -124.433594 -18.789062 -126.5625 -25.523438 -127.980469 C -28.359375 -128.6875 -31.195312 -126.914062 -32.613281 -124.433594 L -36.160156 -116.632812 C -37.578125 -113.089844 -35.804688 -108.835938 -31.90625 -107.773438 C -18.789062 -104.226562 -6.734375 -102.808594 4.253906 -103.164062 C -1.417969 -66.292969 -6.027344 -26.589844 -6.734375 -4.253906 C -4.609375 1.417969 15.242188 -0.355469 15.242188 -0.355469 C 15.242188 -0.355469 18.082031 -26.589844 22.6875 -59.558594 C 35.804688 -58.496094 48.566406 -58.496094 60.621094 -63.101562 C 64.519531 -64.167969 60.265625 -88.273438 57.078125 -87.210938 C 45.730469 -82.601562 36.160156 -82.246094 25.878906 -82.957031 C 26.941406 -90.753906 28.359375 -98.554688 29.425781 -106.351562 C 64.519531 -115.214844 85.082031 -140.386719 93.589844 -154.921875 C 110.960938 -184.699219 113.089844 -216.960938 85.792969 -227.597656 Z M 84.019531 -189.308594 C 72.675781 -156.339844 53.53125 -139.675781 33.679688 -131.878906 C 36.871094 -148.539062 40.058594 -162.722656 42.894531 -171.582031 C 55.304688 -209.515625 74.449219 -216.253906 80.121094 -212.707031 C 87.210938 -208.808594 87.917969 -200.300781 84.019531 -189.308594 Z M 84.019531 -189.308594 "/></g></g></g><g fill="#3b7ba4" fill-opacity="1"><g transform="translate(868.982234, 352.140434)"><g><path d="M 96.425781 10.636719 C 101.746094 -24.460938 107.773438 -55.660156 108.835938 -78.347656 C 110.253906 -91.464844 111.316406 -101.035156 112.027344 -104.582031 C 112.378906 -106 111.671875 -107.0625 110.609375 -107.773438 C 100.328125 -110.960938 90.753906 -108.835938 87.210938 -107.773438 C 86.5 -107.417969 85.792969 -106.707031 85.4375 -106 C 85.082031 -103.871094 40.769531 -22.6875 28.359375 -23.042969 C 21.625 -23.398438 15.242188 -32.261719 17.726562 -49.277344 C 19.144531 -60.976562 24.105469 -82.246094 25.523438 -86.855469 C 25.878906 -87.917969 25.171875 -89.335938 23.753906 -89.691406 C 13.824219 -93.589844 4.253906 -91.820312 0.710938 -90.753906 C -0.355469 -90.753906 -0.710938 -90.046875 -1.0625 -88.980469 C -2.835938 -82.957031 -6.734375 -72.320312 -9.21875 -43.605469 C -11.34375 -22.6875 -1.417969 -10.28125 12.40625 -2.480469 C 24.816406 4.964844 39.707031 3.191406 60.265625 -19.851562 C 67.355469 -28.007812 77.992188 -41.476562 79.410156 -46.085938 C 77.285156 -29.777344 74.09375 -4.609375 71.257812 13.824219 C 36.160156 22.6875 15.597656 47.859375 7.089844 62.75 C -10.28125 92.171875 -12.40625 124.789062 15.242188 135.421875 C 45.378906 146.769531 69.484375 118.761719 80.121094 89.335938 C 84.019531 77.992188 88.980469 55.660156 93.238281 30.132812 C 107.417969 28.007812 119.824219 30.132812 125.851562 31.90625 C 128.332031 32.261719 131.167969 31.195312 132.585938 29.070312 L 135.421875 24.460938 C 137.550781 20.917969 135.777344 16.308594 131.878906 15.242188 C 118.761719 11.699219 107.0625 10.636719 96.425781 10.636719 Z M 58.140625 79.054688 C 45.730469 116.988281 26.589844 123.722656 20.5625 120.535156 C 13.824219 116.28125 13.117188 108.125 17.015625 96.78125 C 28.007812 63.457031 47.503906 46.085938 67.355469 37.222656 C 64.167969 54.949219 60.976562 69.839844 58.140625 79.054688 Z M 58.140625 79.054688 "/></g></g></g></svg>